<?xml version="1.0" encoding="utf-8"?>
<svg id="master-artboard" viewBox="0 0 1400 980" version="1.1" xmlns="http://www.w3.org/2000/svg" x="0px" y="0px" style="enable-background:new 0 0 336 235.2;" width="1400px" height="980px"><defs><radialGradient id="gradient-0" gradientUnits="objectBoundingBox" cx="0.5" cy="0.5" r="0.5">
                <stop offset="0" style="stop-color: #ed1c23"/>
                <stop offset="1" style="stop-color: #970c11"/>
              </radialGradient></defs><g transform="matrix(2.047373377042886, 0, 0, 2.047373377042886, 188.15669960829703, 43.672606904813144)"><path d="M 500 312.70001220703125 L 403.1000061035156 307.70001220703125 L 420.6000061035156 372.70001220703125 L 351.8999938964844 352.70001220703125 L 351.20001220703125 436 L 283.79998779296875 375.79998779296875 L 247.1999969482422 434.6000061035156 L 210.6999969482422 373.1000061035156 L 128.8000030517578 427.79998779296875 L 152 343.6000061035156 L 70.19999694824219 360.8999938964844 L 98.5999984741211 296.5 L 0 286.6000061035156 L 79 235.8000030517578 L 19.5 192.39999389648438 L 89.80000305175781 173.60000610351562 L 42.400001525878906 93.9000015258789 L 129 120.5 L 127.5999984741211 53.70000076293945 L 190 85.69999694824219 L 211.89999389648438 0 L 262.20001220703125 75.19999694824219 L 309.79998779296875 33.29999923706055 L 333 90.9000015258789 L 418.79998779296875 28.299999237060547 L 390.29998779296875 130.10000610351562 L 483.8999938964844 134 L 416.5 192.60000610351562 L 495.5 206.5 L 428.70001220703125 248.8000030517578 Z" class="st0" style="fill: rgb(160, 255, 87); fill-opacity: 1; stroke: rgb(29, 27, 30); stroke-width: 5;"/></g></svg>