<?xml version="1.0" encoding="utf-8"?>
<!-- Generator: Adobe Illustrator 23.0.2, SVG Export Plug-In . SVG Version: 6.00 Build 0)  -->
<svg version="1.1" id="Layer_1" xmlns="http://www.w3.org/2000/svg" xmlns:xlink="http://www.w3.org/1999/xlink" x="0px" y="0px"
	 viewBox="0 0 500 436" style="enable-background:new 0 0 500 436;" xml:space="preserve">
<style type="text/css">
	.st0{fill:#ED1C24;}
</style>
<polygon class="st0" points="500,312.7 403.1,307.7 420.6,372.7 351.9,352.7 351.2,436 283.8,375.8 247.2,434.6 210.7,373.1 
	128.8,427.8 152,343.6 70.2,360.9 98.6,296.5 0,286.6 79,235.8 19.5,192.4 89.8,173.6 42.4,93.9 129,120.5 127.6,53.7 190,85.7 
	211.9,0 262.2,75.2 309.8,33.3 333,90.9 418.8,28.3 390.3,130.1 483.9,134 416.5,192.6 495.5,206.5 428.7,248.8 "/>
</svg>
