<svg xmlns="http://www.w3.org/2000/svg" xmlns:xlink="http://www.w3.org/1999/xlink" xmlns:serif="http://www.serif.com/" viewBox="0 0 32 32" version="1.1" xml:space="preserve" style="" x="0px" y="0px" fill-rule="evenodd" clip-rule="evenodd" stroke-linejoin="round" stroke-miterlimit="2"><g transform="matrix(1,0,0,1,-185,-222)"><path d="M202.472,240.886L205.69,244.104C205.139,244.797 205.19,245.81 205.836,246.443C205.836,246.443 210.935,251.435 210.935,251.435C211.625,252.111 212.734,252.099 213.41,251.409C213.41,251.409 214.459,250.337 214.459,250.337C215.135,249.647 215.123,248.538 214.433,247.862C214.433,247.862 209.334,242.871 209.334,242.871C208.722,242.271 207.78,242.213 207.103,242.689L203.886,239.472C205.208,237.84 206,235.762 206,233.5C206,228.257 201.743,224 196.5,224C191.257,224 187,228.257 187,233.5C187,238.743 191.257,243 196.5,243C198.762,243 200.84,242.208 202.472,240.886ZM207.414,245.189L212.156,249.831L212.855,249.116L208.114,244.475L207.414,245.189ZM196.5,226C200.639,226 204,229.361 204,233.5C204,237.639 200.639,241 196.5,241C192.361,241 189,237.639 189,233.5C189,229.361 192.361,226 196.5,226ZM195.993,229C197.609,229.011 198.793,229.38 199.606,230.108C200.408,230.826 200.827,231.873 201.01,233.143C201.089,233.689 201.597,234.069 202.143,233.99C202.689,233.911 203.069,233.403 202.99,232.857C202.732,231.069 202.069,229.629 200.94,228.618C199.823,227.618 198.228,227.015 196.007,227C195.455,226.996 195.004,227.441 195,227.993C194.996,228.545 195.441,228.996 195.993,229Z"></path></g></svg>