<svg xmlns="http://www.w3.org/2000/svg" xmlns:xlink="http://www.w3.org/1999/xlink" version="1.1" x="0px" y="0px" viewBox="7.5 7.5 50 50" enable-background="new 7.5 7.5 50 50" xml:space="preserve"><path d="M56.134,25.755c-0.292-1.078-0.987-1.978-1.956-2.534l-14.105-8.089c-0.97-0.556-2.1-0.701-3.176-0.409  c-1.078,0.292-1.979,0.987-2.533,1.956l-1.018,1.773V13.13c0-2.306-1.875-4.182-4.181-4.182H12.901  c-2.306,0-4.182,1.876-4.182,4.182v28.843c0,2.307,1.876,4.183,4.182,4.183h7.308c0.352,0.51,0.81,0.942,1.352,1.253l14.108,8.089  c0.643,0.368,1.354,0.557,2.074,0.557c0.367,0,0.736-0.049,1.101-0.147c1.077-0.293,1.977-0.987,2.532-1.957L55.725,28.93  C56.281,27.961,56.427,26.834,56.134,25.755z M9.72,41.973V13.13c0-1.754,1.427-3.182,3.182-3.182h16.264  c1.754,0,3.181,1.428,3.181,3.182v28.843c0,1.755-1.427,3.183-3.181,3.183H12.901C11.147,45.155,9.72,43.728,9.72,41.973z   M54.857,28.433L40.509,53.451c-0.423,0.738-1.107,1.268-1.927,1.489c-0.822,0.223-1.679,0.111-2.415-0.311l-14.108-8.089  c-0.186-0.106-0.349-0.245-0.509-0.386h7.615c2.305,0,4.181-1.876,4.181-4.183V20.461l1.885-3.285  c0.423-0.737,1.107-1.266,1.928-1.488c0.818-0.224,1.679-0.112,2.416,0.311l14.105,8.089c0.738,0.423,1.267,1.108,1.489,1.929  S55.28,27.695,54.857,28.433z"></path></svg>