<svg xmlns="http://www.w3.org/2000/svg" xmlns:xlink="http://www.w3.org/1999/xlink" version="1.1" x="0px" y="0px" viewBox="0 0 100 100" style="enable-background:new 0 0 100 100;" xml:space="preserve"><g><path d="M33.896,60.72c3.833,4.003,5.943,9.123,5.943,14.416v1.09c-0.003,0.117,0.004,0.235,0.03,0.354   c0.004,0.017,0.015,0.03,0.019,0.047c0.034,0.136,0.087,0.263,0.155,0.381c0.014,0.024,0.024,0.049,0.039,0.072   c0.079,0.121,0.177,0.226,0.286,0.32c0.021,0.018,0.041,0.035,0.063,0.052c0.117,0.089,0.245,0.162,0.385,0.214   c0.016,0.006,0.032,0.01,0.048,0.015c0.15,0.05,0.307,0.084,0.474,0.084c0.122,0,0.239-0.018,0.352-0.046l17.468-3.792   c0.014-0.003,0.025-0.009,0.039-0.013c0.06-0.015,0.117-0.035,0.174-0.057c0.036-0.014,0.072-0.026,0.107-0.042   c0.053-0.025,0.102-0.055,0.152-0.086c0.033-0.021,0.067-0.04,0.099-0.063c0.047-0.035,0.09-0.074,0.133-0.114   c0.027-0.025,0.055-0.049,0.08-0.076c0.042-0.045,0.078-0.094,0.114-0.144c0.02-0.028,0.041-0.054,0.059-0.083   c0.032-0.051,0.058-0.106,0.083-0.162c0.016-0.034,0.032-0.066,0.045-0.101c0.02-0.052,0.033-0.107,0.047-0.162   c0.011-0.042,0.022-0.084,0.029-0.127c0.003-0.018,0.01-0.035,0.012-0.054c0.539-4.383,2.563-8.592,5.7-11.848   c4.028-4.161,6.247-9.643,6.247-15.436c0-6.18-2.472-11.925-6.962-16.176c-4.485-4.247-10.353-6.399-16.549-6.063   c-11.67,0.63-20.913,10.292-21.042,21.996C27.663,50.96,29.854,56.502,33.896,60.72z M48.928,26.116   c5.355-0.29,10.444,1.571,14.324,5.246c3.885,3.679,6.024,8.65,6.024,13.998c0,5.01-1.918,9.75-5.405,13.352   c-3.331,3.459-5.547,7.864-6.343,12.499l-14.727,3.197c-0.185-5.808-2.546-11.381-6.74-15.762   c-3.496-3.649-5.391-8.442-5.338-13.497C30.835,35.021,38.832,26.662,48.928,26.116z"></path><path d="M48.501,50.217v18.57c0,0.829,0.671,1.5,1.5,1.5s1.5-0.671,1.5-1.5v-18.57l5.422-5.422c0.586-0.585,0.586-1.536,0-2.121   c-0.586-0.586-1.535-0.586-2.121,0l-4.801,4.801L45.2,42.674c-0.586-0.586-1.535-0.586-2.121,0c-0.586,0.585-0.586,1.535,0,2.121   L48.501,50.217z"></path><path d="M58.436,76.721l-17.506,3.8c-0.81,0.176-1.323,0.975-1.147,1.784c0.152,0.702,0.774,1.182,1.464,1.182   c0.105,0,0.212-0.011,0.32-0.035l17.506-3.8c0.81-0.176,1.323-0.975,1.147-1.784S59.246,76.542,58.436,76.721z"></path><path d="M60.306,83.593c-0.176-0.81-0.975-1.325-1.784-1.147l-17.506,3.801c-0.81,0.176-1.323,0.975-1.147,1.784   c0.152,0.702,0.774,1.182,1.464,1.182c0.105,0,0.212-0.011,0.32-0.035l17.506-3.801C59.968,85.202,60.481,84.403,60.306,83.593z"></path><path d="M56.822,89.03c0.108-0.821-0.47-1.575-1.292-1.683c-0.819-0.105-1.574,0.47-1.683,1.292C53.595,90.555,51.939,92,49.996,92   c-1.037,0-2.014-0.407-2.753-1.146c-0.209-0.21-0.384-0.429-0.518-0.652c-0.426-0.71-1.347-0.94-2.058-0.514   c-0.71,0.426-0.94,1.348-0.514,2.058c0.26,0.433,0.586,0.847,0.968,1.229C46.426,94.281,48.157,95,49.996,95   C53.439,95,56.374,92.434,56.822,89.03z"></path><path d="M11.919,46.081h9.332c0.829,0,1.5-0.671,1.5-1.5s-0.671-1.5-1.5-1.5h-9.332c-0.829,0-1.5,0.671-1.5,1.5   S11.091,46.081,11.919,46.081z"></path><path d="M77.249,44.581c0,0.829,0.671,1.5,1.5,1.5h9.332c0.829,0,1.5-0.671,1.5-1.5s-0.671-1.5-1.5-1.5h-9.332   C77.92,43.081,77.249,43.752,77.249,44.581z"></path><path d="M50,17.332c0.829,0,1.5-0.671,1.5-1.5V6.5C51.5,5.671,50.829,5,50,5s-1.5,0.671-1.5,1.5v9.332   C48.5,16.661,49.171,17.332,50,17.332z"></path><path d="M70.328,25.752c0.384,0,0.768-0.146,1.061-0.439l6.599-6.599c0.586-0.585,0.586-1.536,0-2.121   c-0.586-0.586-1.535-0.586-2.121,0l-6.599,6.599c-0.586,0.585-0.586,1.536,0,2.121C69.561,25.605,69.944,25.752,70.328,25.752z"></path><path d="M28.611,63.848l-6.599,6.599c-0.586,0.585-0.586,1.536,0,2.121c0.293,0.293,0.677,0.439,1.061,0.439   s0.768-0.146,1.061-0.439l6.599-6.599c0.586-0.585,0.586-1.536,0-2.121C30.146,63.262,29.197,63.262,28.611,63.848z"></path><path d="M28.611,25.313c0.293,0.293,0.677,0.439,1.061,0.439s0.768-0.146,1.061-0.439c0.586-0.585,0.586-1.536,0-2.121   l-6.599-6.599c-0.586-0.586-1.535-0.586-2.121,0c-0.586,0.585-0.586,1.536,0,2.121L28.611,25.313z"></path><path d="M76.927,73.007c0.384,0,0.768-0.146,1.061-0.439c0.586-0.585,0.586-1.536,0-2.121l-6.599-6.599   c-0.586-0.586-1.535-0.586-2.121,0c-0.586,0.585-0.586,1.536,0,2.121l6.599,6.599C76.159,72.861,76.543,73.007,76.927,73.007z"></path></g></svg>